/* XPM */
static char *result[] = {
/* columns rows colors chars-per-pixel */
"32 32 6 1 ",
"  c #17111A",
". c #17111B",
"X c #E14141",
"o c #EB5665",
"O c #FF80AA",
"+ c None",
/* pixels */
"++++++++++++++++++++++++++++++++",
"++++++++++++++++++++++++++++++++",
"++++++++++++++++++++++++++++++++",
"+++++++++   ++++++++++++++++++++",
"++++   + OOo +++++++++++++++++++",
"+++ OOO OOOo +++++++++++++++++++",
"+++ OOOoOOOo .++++++++++++++++++",
"+++ OOOOOOOo .++++++++++++++++++",
"++++ OOOOOo ..++++++++++++++++++",
"++++. OOOoo ..++++++++++++++++++",
"+++++. ooo ..    +++++++++++++++",
"++++++. o .. OOOO  +++++++++++++",
"+++++++. .. OOOOOOO +++   ++++++",
"++++++++.. OOOOOOOO +  ooo +++++",
"+++++++++. OOOOOOOOo oOOOoo ++++",
"++++++++++ OOOOOOOO OOOOOOoo +++",
"++++++++++ OOOOOOOoOOOOOOOOo +++",
"++++++++++ OOOOOOOOOOOOOOOOo .++",
"+++++++++++ OOOOOOOOOOOOOOOo .++",
"+++++++++++ OOOOOOOOOOOOOOoo .++",
"++++++++++++ OOOOOOOOOOOOOoX .++",
"++++++++++++ OOOOOOOOOOOOoo ..++",
"+++++++++++++ OOOOOOOOOOoo ...++",
"+++++++++++++. OOOOOOOOoo ...+++",
"++++++++++++++ OOOOOOooo ...++++",
"+++++++++++++++ OOOooo  ...+++++",
"+++++++++++++++ oooo  ....++++++",
"+++++++++++++++ oo  .....+++++++",
"++++++++++++++++  .....+++++++++",
"++++++++++++++++.....+++++++++++",
"+++++++++++++++++..+++++++++++++",
"++++++++++++++++++++++++++++++++"
};
