/* XPM */
static char *result[] = {
/* columns rows colors chars-per-pixel */
"32 32 8 1 ",
"  c #597A01",
". c #597B02",
"X c #689100",
"o c #719E00",
"O c #7AA700",
"+ c #8CC200",
"@ c #A0D700",
"# c None",
/* pixels */
"################################",
"################################",
"################################",
"################################",
"##############O#################",
"##############+#################",
"##########X###@O####X###########",
"##########+X##@+###X ###########",
"##########o@X#+@ #O@ ###########",
"##########X@@ O@ O@+ ###O ######",
"#######O###+@O +X@@O #X+ #######",
"########O+XX+@ XO@OX X@o #######",
"#########O+XO+O +oXOX@+X.#######",
"######X+@+XOX+O oX@ X@o   ######",
"#######Xo@+Xo o X@+ +OX  #######",
"########  oO o  O+oXOo  .#######",
"#########.   Xo @O XX  X #######",
"######XXO+@OX o +o X      ######",
"######## X++o +X    X ##########",
"##########.  +O XO+X X #########",
"##########XX O ..XOOX   ########",
"############# .###.   .#########",
"################################",
"################################",
"################################",
"################################",
"################################",
"################################",
"################################",
"################################",
"################################",
"################################"
};
