/* XPM */
static char *result[] = {
/* columns rows colors chars-per-pixel */
"32 32 5 1 ",
"  c #17111A",
". c #734538",
"X c #A66F4C",
"o c #D3A15E",
"O c None",
/* pixels */
"OOOOOOOOOOOOOOOOOOOOOOOOOOOOOOOO",
"OOOOOOOOOOOOOOOOOOOOOOOOOOOOOOOO",
"OOOOOOOOOOOOOOOOOOOOOOOOOOOOOOOO",
"OOOOOOOOOOOOOOOOOOOOOOOOOOOOOOOO",
"OOOOOOOOOOOOOOOOOOOOOOOOOOOOOOOO",
"OOOOOOOOOOOOOOOOOOOOOO OOOOOOOOO",
"OOOOOOOOOOO OOOOOOOOO o OOOOOOOO",
"OOOOOOOOOO o OOOOOOOO o OOOOOOOO",
"OOOOOOOOOO o OOOOOO  oo OOOOOOOO",
"OOOOOOOOOO o.      oooo OOOOOOOO",
"OOOOOOOOOO o.XXXoooooooX OOOOOOO",
"OOOOOOOOOO oo.XooooooooX OOOOOOO",
"OOOOOOOOOO ooXooooooooooX OOOOOO",
"OOOOOOOOO ooooXoooooooooX OOOOOO",
"OOOOOOOOO ooooXooooooooooX OOOOO",
"OOOOOOOO ooooooXoooooooooXX OOOO",
"OOOOOOOO ooXoooXooooooooooXX OOO",
"OOOOOOO ooo.ooooXoooooooooXX OOO",
"OOOOOOO ooo.XoooXooooooooooXX OO",
"OOOOOO oooo.Xoooo.ooooooooXXX OO",
"OOOOOO oooo XooooX.XoooooXXXX OO",
"OOOOO oooo O XooooX.XXooXXX  OOO",
"OOOOO oooo O XooooXX.XXXXX OOOOO",
"OOOO ooooX O XoooXXXX.XX  OOOOOO",
"OOOO XXXX OOO XXXXXXX.  OOOOOOOO",
"OOOO      OOO         OOOOOOOOOO",
"OOOOOOOOOOOOOOOOOOOOOOOOOOOOOOOO",
"OOOOOOOOOOOOOOOOOOOOOOOOOOOOOOOO",
"OOOOOOOOOOOOOOOOOOOOOOOOOOOOOOOO",
"OOOOOOOOOOOOOOOOOOOOOOOOOOOOOOOO",
"OOOOOOOOOOOOOOOOOOOOOOOOOOOOOOOO",
"OOOOOOOOOOOOOOOOOOOOOOOOOOOOOOOO"
};
